<?xml version="1.0" encoding="UTF-8"?>
<svg version="1.1" xmlns="http://www.w3.org/2000/svg" width="363" height="292">
<path d="M0 0 C1.74506836 0.00966797 1.74506836 0.00966797 3.52539062 0.01953125 C4.74033203 0.03628906 5.95527344 0.05304688 7.20703125 0.0703125 C8.43357422 0.07933594 9.66011719 0.08835937 10.92382812 0.09765625 C13.9559242 0.12125233 16.98763063 0.15417409 20.01953125 0.1953125 C30.58870868 24.60750144 41.14800235 49.02303661 51.47802734 73.53759766 C52.51087733 75.98836714 53.54479116 78.43865262 54.58056641 80.88818359 C56.02259719 84.30137555 57.45958291 87.71663799 58.89453125 91.1328125 C59.52983765 92.63569824 59.52983765 92.63569824 60.17797852 94.16894531 C60.55623779 95.07354492 60.93449707 95.97814453 61.32421875 96.91015625 C61.65405762 97.69511475 61.98389648 98.48007324 62.32373047 99.28881836 C63.01953125 101.1953125 63.01953125 101.1953125 63.01953125 103.1953125 C63.67953125 103.5253125 64.33953125 103.8553125 65.01953125 104.1953125 C65.73708797 106.00628898 66.4429212 107.82276281 67.08984375 109.66015625 C68.5800288 113.72372808 70.32482597 117.67962763 72.03125 121.65625 C73.01953125 124.1953125 73.01953125 124.1953125 73.01953125 126.1953125 C63.44953125 126.1953125 53.87953125 126.1953125 44.01953125 126.1953125 C44.01953125 125.2053125 44.01953125 124.2153125 44.01953125 123.1953125 C43.35953125 122.8653125 42.69953125 122.5353125 42.01953125 122.1953125 C41.39453125 119.6328125 41.39453125 119.6328125 41.01953125 117.1953125 C39.53453125 116.7003125 39.53453125 116.7003125 38.01953125 116.1953125 C37.91640625 115.2878125 37.81328125 114.3803125 37.70703125 113.4453125 C37.26549056 110.23058953 37.26549056 110.23058953 35.51953125 108.1953125 C33.58525134 105.61627262 33.4985019 103.34283393 33.01953125 100.1953125 C31.2356596 97.98658157 31.2356596 97.98658157 28.88082886 97.99276733 C27.99702545 98.01497345 27.11322205 98.03717957 26.20263672 98.06005859 C25.20175018 98.08023041 24.20086365 98.10040222 23.16964722 98.1211853 C22.08628082 98.15338165 21.00291443 98.185578 19.88671875 98.21875 C18.7797464 98.24377594 17.67277405 98.26880188 16.53225708 98.29458618 C12.98604482 98.37695736 9.44037534 98.47348128 5.89453125 98.5703125 C3.49481406 98.62853451 1.0950744 98.68583814 -1.3046875 98.7421875 C-7.19704385 98.88083118 -13.08845422 99.03858745 -18.98046875 99.1953125 C-24.92046875 112.5603125 -24.92046875 112.5603125 -30.98046875 126.1953125 C-40.22046875 126.1953125 -49.46046875 126.1953125 -58.98046875 126.1953125 C-58.65046875 123.8853125 -58.32046875 121.5753125 -57.98046875 119.1953125 C-57.32046875 119.1953125 -56.66046875 119.1953125 -55.98046875 119.1953125 C-56.31046875 118.2053125 -56.64046875 117.2153125 -56.98046875 116.1953125 C-56.32046875 116.1953125 -55.66046875 116.1953125 -54.98046875 116.1953125 C-54.32046875 113.2253125 -53.66046875 110.2553125 -52.98046875 107.1953125 C-52.32046875 107.1953125 -51.66046875 107.1953125 -50.98046875 107.1953125 C-50.65046875 104.8853125 -50.32046875 102.5753125 -49.98046875 100.1953125 C-49.32046875 100.1953125 -48.66046875 100.1953125 -47.98046875 100.1953125 C-47.83609375 99.4528125 -47.69171875 98.7103125 -47.54296875 97.9453125 C-47.07859383 95.67503511 -46.56183306 93.43771771 -45.98046875 91.1953125 C-45.32046875 91.1953125 -44.66046875 91.1953125 -43.98046875 91.1953125 C-43.87734375 90.5559375 -43.77421875 89.9165625 -43.66796875 89.2578125 C-42.7408923 85.12810831 -41.35552524 81.19420126 -39.98046875 77.1953125 C-39.58859375 76.0196875 -39.19671875 74.8440625 -38.79296875 73.6328125 C-38.52484375 72.8284375 -38.25671875 72.0240625 -37.98046875 71.1953125 C-37.32046875 71.1953125 -36.66046875 71.1953125 -35.98046875 71.1953125 C-35.98046875 69.8753125 -35.98046875 68.5553125 -35.98046875 67.1953125 C-35.32046875 67.1953125 -34.66046875 67.1953125 -33.98046875 67.1953125 C-33.70783203 66.23431641 -33.70783203 66.23431641 -33.4296875 65.25390625 C-31.91930529 60.05664234 -30.21749814 55.13541908 -27.98046875 50.1953125 C-25.82833345 45.47910417 -25.82833345 45.47910417 -24.48046875 40.5078125 C-23.88785992 37.76699667 -22.68045318 36.39112573 -20.98046875 34.1953125 C-20.83351562 33.59203125 -20.6865625 32.98875 -20.53515625 32.3671875 C-19.88858363 29.83553696 -18.83096952 27.81398213 -17.60546875 25.5078125 C-15.22176118 20.85785541 -13.46671055 16.19778491 -11.98046875 11.1953125 C-11.32046875 11.1953125 -10.66046875 11.1953125 -9.98046875 11.1953125 C-9.94308594 10.56882812 -9.90570313 9.94234375 -9.8671875 9.296875 C-9.80144531 8.47960937 -9.73570313 7.66234375 -9.66796875 6.8203125 C-9.58095703 5.60214844 -9.58095703 5.60214844 -9.4921875 4.359375 C-8.33528001 -0.5331956 -4.15987657 -0.04058416 0 0 Z M6.01953125 34.1953125 C7.01953125 37.1953125 7.01953125 37.1953125 7.01953125 37.1953125 Z M7.01953125 37.1953125 C3.75573267 39.86064633 2.47012892 43.33197554 0.91796875 47.12890625 C0.63603668 47.80325211 0.35410461 48.47759796 0.06362915 49.17237854 C-0.52975367 50.59564748 -1.11957388 52.02040631 -1.70605469 53.4465332 C-2.60210537 55.62463685 -3.50902812 57.79795138 -4.41796875 59.97070312 C-4.9941331 61.35650346 -5.56967491 62.74256282 -6.14453125 64.12890625 C-6.41431793 64.7769371 -6.68410461 65.42496796 -6.96206665 66.09263611 C-8.20819481 69.13025822 -9.18093455 71.99717568 -9.98046875 75.1953125 C0.90953125 75.1953125 11.79953125 75.1953125 23.01953125 75.1953125 C22.68953125 74.2053125 22.35953125 73.2153125 22.01953125 72.1953125 C22.01953125 71.5353125 22.01953125 70.8753125 22.01953125 70.1953125 C21.40984901 68.70088208 20.75824357 67.22334026 20.08203125 65.7578125 C18.92369635 63.23770753 17.89822526 60.83139454 17.01953125 58.1953125 C16.1756807 56.12857033 15.32035098 54.066498 14.45703125 52.0078125 C13.77447266 50.37779297 13.77447266 50.37779297 13.078125 48.71484375 C12.72878906 47.88339844 12.37945312 47.05195313 12.01953125 46.1953125 C11.35953125 46.1953125 10.69953125 46.1953125 10.01953125 46.1953125 C9.89578125 45.0815625 9.77203125 43.9678125 9.64453125 42.8203125 C9.37294995 39.16427573 9.37294995 39.16427573 7.01953125 37.1953125 Z " fill="#000000" transform="translate(67.98046875,92.8046875)"/>
<path d="M0 0 C2.60168493 2.60168493 3.14851727 5.01184327 4.3125 8.5 C7.47815294 17.65773979 11.20708496 26.86843523 18 34 C18.66 34 19.32 34 20 34 C20.55558594 34.75152344 21.11117187 35.50304687 21.68359375 36.27734375 C24.41563009 39.48852305 27.27876131 40.92472671 31.0625 42.5625 C32.05080811 43.0107312 32.05080811 43.0107312 33.05908203 43.46801758 C37.94056826 45.64617529 42.9000448 47.44647359 48.0234375 48.98046875 C50 50 50 50 50.7890625 52.11328125 C50.89347656 53.04720703 50.89347656 53.04720703 51 54 C47.31321903 56.36173678 43.6681591 57.99120655 39.5625 59.5 C35.22031476 61.09948264 31.1089079 62.86807795 27 65 C27 65.66 27 66.32 27 67 C26.41863281 67.10699219 25.83726562 67.21398437 25.23828125 67.32421875 C17.48350622 69.66553826 13.0840778 77.45944443 9.40234375 84.11328125 C7.80717917 87.39692087 6.86316794 90.46885843 6 94 C5.01 94.495 5.01 94.495 4 95 C3.09274566 97.11327425 3.09274566 97.11327425 2.375 99.5625 C2.11460937 100.38878906 1.85421875 101.21507812 1.5859375 102.06640625 C1.39257812 102.70449219 1.19921875 103.34257812 1 104 C-0.32 104 -1.64 104 -3 104 C-3.27972656 103.29617187 -3.55945313 102.59234375 -3.84765625 101.8671875 C-6.22940444 96.00088809 -8.76327609 90.23969257 -11.5625 84.5625 C-12.12066406 83.42941406 -12.67882812 82.29632813 -13.25390625 81.12890625 C-16.10692239 76.01645451 -19.35381865 72.51296639 -24 69 C-24.71542969 68.37351562 -25.43085938 67.74703125 -26.16796875 67.1015625 C-29.56034801 64.58418313 -32.9932096 63.05188947 -36.875 61.4375 C-37.55691406 61.14681641 -38.23882812 60.85613281 -38.94140625 60.55664062 C-42.95187758 58.84753409 -42.95187758 58.84753409 -46.99707031 57.22314453 C-50.48115576 55.83654709 -51.85863686 55.21204471 -54 52 C-48.22584491 48.15056327 -41.63135122 45.6278229 -34.9375 43.875 C-33.968125 43.58625 -32.99875 43.2975 -32 43 C-31.67 42.34 -31.34 41.68 -31 41 C-30.0925 40.566875 -29.185 40.13375 -28.25 39.6875 C-24.69804438 37.84321535 -22.68526962 35.95379658 -20 33 C-19.52691406 32.53078125 -19.05382812 32.0615625 -18.56640625 31.578125 C-11.43872582 24.09868891 -8.04090496 13.85684803 -5.0546875 4.14453125 C-3.77814831 1.54890156 -2.6643623 0.98946235 0 0 Z " fill="#010101" transform="translate(256,115)"/>
<path d="M0 0 C1.12019531 -0.00128906 2.24039063 -0.00257813 3.39453125 -0.00390625 C4.57402344 -0.00003906 5.75351563 0.00382813 6.96875 0.0078125 C8.73798828 0.00201172 8.73798828 0.00201172 10.54296875 -0.00390625 C12.22326172 -0.00197266 12.22326172 -0.00197266 13.9375 0 C14.97326172 0.00112793 16.00902344 0.00225586 17.07617188 0.00341797 C19.46875 0.1328125 19.46875 0.1328125 20.46875 1.1328125 C20.56923523 3.86631998 20.60491261 6.57459142 20.59814453 9.30859375 C20.59989685 10.16544769 20.60164917 11.02230164 20.60345459 11.90512085 C20.60787417 14.7518717 20.60493475 17.59856097 20.6015625 20.4453125 C20.60223551 22.41446952 20.60320551 24.38362647 20.60446167 26.3527832 C20.60593879 30.48552235 20.60378364 34.61823992 20.59912109 38.75097656 C20.5934238 44.06105771 20.59670273 49.37108831 20.60269356 54.6811676 C20.6062988 58.74906803 20.60516076 62.81695639 20.60256577 66.88485718 C20.60189639 68.84337368 20.60272527 70.80189126 20.60504532 72.76040649 C20.60757124 75.4926445 20.60373211 78.22479947 20.59814453 80.95703125 C20.60016876 81.77472992 20.60219299 82.59242859 20.60427856 83.43490601 C20.58301246 89.01855004 20.58301246 89.01855004 19.46875 90.1328125 C17.54207493 90.22029457 15.61223139 90.23978584 13.68359375 90.23046875 C11.92885742 90.22563477 11.92885742 90.22563477 10.13867188 90.22070312 C8.29112305 90.20813477 8.29112305 90.20813477 6.40625 90.1953125 C4.55290039 90.18854492 4.55290039 90.18854492 2.66210938 90.18164062 C-0.40239117 90.16980858 -3.46679721 90.15332423 -6.53125 90.1328125 C-6.55437228 78.54592848 -6.5721645 66.95904991 -6.58306217 55.37214756 C-6.58829125 49.99247488 -6.59538935 44.61281792 -6.60668945 39.2331543 C-6.61751745 34.04606407 -6.62352665 28.85898901 -6.62612724 23.67188835 C-6.62798165 21.6882497 -6.63160256 19.70461192 -6.63698006 17.72097969 C-6.64418932 14.95272114 -6.64524099 12.18452612 -6.64477539 9.41625977 C-6.64837067 8.58763931 -6.65196594 7.75901886 -6.65567017 6.9052887 C-6.6436278 0.33306627 -6.49440317 0.00707231 0 0 Z " fill="#000000" transform="translate(160.53125,128.8671875)"/>
<path d="M0 0 C2.35546875 0.19140625 2.35546875 0.19140625 5 1 C6.36328125 3.21484375 6.36328125 3.21484375 7.3125 5.9375 C7.80169922 7.28134766 7.80169922 7.28134766 8.30078125 8.65234375 C9 11 9 11 9 13 C9.66 13.33 10.32 13.66 11 14 C11 14.99 11 15.98 11 17 C11.66 17 12.32 17 13 17 C14.15362682 18.18755702 15.30673126 19.37562649 16.45703125 20.56640625 C20.51914634 24.34057394 25.18626007 26.82487328 30.4375 28.5 C31.613125 28.995 32.78875 29.49 34 30 C34.72265625 32.59375 34.72265625 32.59375 35 35 C33.94039063 35.48210937 32.88078125 35.96421875 31.7890625 36.4609375 C30.40093484 37.09872588 29.01291984 37.73675949 27.625 38.375 C26.92632812 38.69210938 26.22765625 39.00921875 25.5078125 39.3359375 C21.4448027 41.20182708 21.4448027 41.20182708 18 44 C17.2575 44.474375 16.515 44.94875 15.75 45.4375 C11.67960596 49.23036718 9.18148943 53.90236148 7 59 C7 60.32 7 61.64 7 63 C6.34 63 5.68 63 5 63 C4.67 63.99 4.34 64.98 4 66 C2.68 66 1.36 66 0 66 C-1.7073432 62.74791771 -3.09209744 59.70431873 -4.1875 56.1875 C-6.10849488 50.89454602 -9.80121265 46.68300541 -14 43 C-16.09308482 42.31317891 -16.09308482 42.31317891 -18 42 C-18.45375 41.525625 -18.9075 41.05125 -19.375 40.5625 C-21.61763863 38.4061167 -24.06560704 37.95816913 -27 37 C-29.375 35.375 -29.375 35.375 -31 34 C-30.484375 32.23828125 -30.484375 32.23828125 -29 30 C-26.42505156 28.59994395 -23.9187921 27.37300116 -21.25 26.1875 C-13.87233213 22.71080869 -9.2197613 19.74221733 -5.625 12.0625 C-5.41875 11.381875 -5.2125 10.70125 -5 10 C-4.34 10 -3.68 10 -3 10 C-2.87625 9.0925 -2.7525 8.185 -2.625 7.25 C-2.07890323 4.41029677 -1.42736197 2.47409409 0 0 Z " fill="#010101" transform="translate(319,74)"/>
<path d="M0 0 C2.30859375 0.1328125 2.30859375 0.1328125 5 1 C6.66015625 3.6171875 6.66015625 3.6171875 8.0625 6.875 C9.87527442 11.04287471 11.10294645 13.58428259 15 16 C15.99 16.66 16.98 17.32 18 18 C20.33707073 19.24156883 22.4760538 20.1586846 25 21 C25.75 22.9375 25.75 22.9375 26 25 C24.18072236 28.63855528 19.56414 29.64138341 15.98046875 31.26953125 C12.75617886 33.14156326 11.05403493 34.91148743 9 38 C9 38.66 9 39.32 9 40 C8.34 40 7.68 40 7 40 C6.01 42.97 5.02 45.94 4 49 C1.625 48.8125 1.625 48.8125 -1 48 C-2.0625 45.9375 -2.0625 45.9375 -3 43 C-6.99788539 33.49559322 -12.8927708 30.31488141 -22 26 C-21.76171875 24.15234375 -21.76171875 24.15234375 -21 22 C-19.14453125 20.69140625 -19.14453125 20.69140625 -16.8125 19.5625 C-7.44227872 14.61051597 -4.33492926 9.63830017 0 0 Z " fill="#010101" transform="translate(253,46)"/>
<path d="M0 0 C3.98738659 2.63846219 6.33043083 5.48476454 7.8359375 10.08984375 C8.79475404 16.64575182 7.60370771 20.70731488 3.8359375 26.08984375 C1.66513255 28.80334994 0.19370689 29.40761145 -3.1640625 30.08984375 C-8.14589448 30.59131529 -12.00407402 30.66983799 -16.5390625 28.40234375 C-21.64562382 23.9037064 -24.00769281 20.66765247 -24.4609375 13.796875 C-23.91822495 8.84819347 -21.47058201 4.74812065 -18.1640625 1.08984375 C-12.7266588 -1.78089077 -5.73281803 -2.41109495 0 0 Z " fill="#010101" transform="translate(175.1640625,91.91015625)"/>
<path d="M0 0 C7.92 0 15.84 0 24 0 C24 0.33 24 0.66 24 1 C16.08 1 8.16 1 0 1 C0 0.67 0 0.34 0 0 Z " fill="#000000" transform="translate(114,220)"/>
<path d="M0 0 C7.26 0 14.52 0 22 0 C22 0.33 22 0.66 22 1 C14.74 1 7.48 1 0 1 C0 0.67 0 0.34 0 0 Z " fill="#000000" transform="translate(156,220)"/>
<path d="M0 0 C6.6 0 13.2 0 20 0 C20 0.33 20 0.66 20 1 C13.4 1 6.8 1 0 1 C0 0.67 0 0.34 0 0 Z " fill="#000000" transform="translate(17,220)"/>
<path d="M0 0 C3 1 3 1 3 1 Z " fill="#000000" transform="translate(11,220)"/>
<path d="M0 0 C2 1 2 1 2 1 Z " fill="#000000" transform="translate(206,172)"/>
<path d="" fill="#000000" transform="translate(0,0)"/>
<path d="M0 0 C2 1 2 1 2 1 Z " fill="#000000" transform="translate(319,72)"/>
<path d="" fill="#FFFFFF" transform="translate(0,0)"/>
<path d="" fill="#FFFFFF" transform="translate(0,0)"/>
<path d="" fill="#FFFFFF" transform="translate(0,0)"/>
<path d="" fill="#FFFFFF" transform="translate(0,0)"/>
<path d="" fill="#FFFFFF" transform="translate(0,0)"/>
<path d="" fill="#FFFFFF" transform="translate(0,0)"/>
<path d="" fill="#FFFFFF" transform="translate(0,0)"/>
<path d="" fill="#FFFFFF" transform="translate(0,0)"/>
<path d="" fill="#FFFFFF" transform="translate(0,0)"/>
<path d="" fill="#FFFFFF" transform="translate(0,0)"/>
<path d="" fill="#FFFFFF" transform="translate(0,0)"/>
<path d="" fill="#FFFFFF" transform="translate(0,0)"/>
<path d="" fill="#FFFFFF" transform="translate(0,0)"/>
<path d="" fill="#FFFFFF" transform="translate(0,0)"/>
<path d="" fill="#FFFFFF" transform="translate(0,0)"/>
<path d="" fill="#FFFFFF" transform="translate(0,0)"/>
<path d="" fill="#FFFFFF" transform="translate(0,0)"/>
<path d="" fill="#FFFFFF" transform="translate(0,0)"/>
<path d="" fill="#000000" transform="translate(0,0)"/>
<path d="" fill="#FFFFFF" transform="translate(0,0)"/>
<path d="" fill="#00FF00" transform="translate(0,0)"/>
<path d="" fill="#000000" transform="translate(0,0)"/>
<path d="" fill="#FFFFFF" transform="translate(0,0)"/>
<path d="" fill="#FFFFFF" transform="translate(0,0)"/>
<path d="" fill="#000000" transform="translate(0,0)"/>
<path d="" fill="#FFFFFF" transform="translate(0,0)"/>
<path d="" fill="#000000" transform="translate(0,0)"/>
<path d="" fill="#FFFFFF" transform="translate(0,0)"/>
<path d="" fill="#000000" transform="translate(0,0)"/>
<path d="" fill="#000000" transform="translate(0,0)"/>
<path d="" fill="#000000" transform="translate(0,0)"/>
<path d="" fill="#000000" transform="translate(0,0)"/>
<path d="" fill="#FFFFFF" transform="translate(0,0)"/>
<path d="" fill="#000000" transform="translate(0,0)"/>
<path d="" fill="#000000" transform="translate(0,0)"/>
<path d="" fill="#000000" transform="translate(0,0)"/>
<path d="" fill="#000000" transform="translate(0,0)"/>
<path d="" fill="#000000" transform="translate(0,0)"/>
<path d="" fill="#000000" transform="translate(0,0)"/>
<path d="" fill="#000000" transform="translate(0,0)"/>
<path d="" fill="#000000" transform="translate(0,0)"/>
<path d="" fill="#FFFFFF" transform="translate(0,0)"/>
<path d="" fill="#000000" transform="translate(0,0)"/>
<path d="" fill="#000000" transform="translate(0,0)"/>
<path d="" fill="#000000" transform="translate(0,0)"/>
<path d="" fill="#000000" transform="translate(0,0)"/>
<path d="" fill="#000000" transform="translate(0,0)"/>
<path d="" fill="#000000" transform="translate(0,0)"/>
<path d="" fill="#000000" transform="translate(0,0)"/>
<path d="" fill="#000000" transform="translate(0,0)"/>
<path d="" fill="#FFFFFF" transform="translate(0,0)"/>
<path d="" fill="#FFFFFF" transform="translate(0,0)"/>
<path d="" fill="#000000" transform="translate(0,0)"/>
<path d="" fill="#000000" transform="translate(0,0)"/>
<path d="" fill="#000000" transform="translate(0,0)"/>
<path d="" fill="#FFFFFF" transform="translate(0,0)"/>
<path d="" fill="#000000" transform="translate(0,0)"/>
<path d="" fill="#000000" transform="translate(0,0)"/>
<path d="" fill="#000000" transform="translate(0,0)"/>
<path d="" fill="#FFFFFF" transform="translate(0,0)"/>
<path d="" fill="#000000" transform="translate(0,0)"/>
<path d="" fill="#000000" transform="translate(0,0)"/>
<path d="" fill="#000000" transform="translate(0,0)"/>
<path d="" fill="#000000" transform="translate(0,0)"/>
<path d="" fill="#000000" transform="translate(0,0)"/>
<path d="" fill="#FFFFFF" transform="translate(0,0)"/>
<path d="" fill="#000000" transform="translate(0,0)"/>
<path d="" fill="#FFFFFF" transform="translate(0,0)"/>
<path d="" fill="#000000" transform="translate(0,0)"/>
<path d="" fill="#000000" transform="translate(0,0)"/>
<path d="" fill="#000000" transform="translate(0,0)"/>
<path d="" fill="#FFFFFF" transform="translate(0,0)"/>
<path d="" fill="#000000" transform="translate(0,0)"/>
<path d="" fill="#000000" transform="translate(0,0)"/>
<path d="" fill="#000000" transform="translate(0,0)"/>
<path d="" fill="#000000" transform="translate(0,0)"/>
<path d="" fill="#FFFFFF" transform="translate(0,0)"/>
<path d="" fill="#000000" transform="translate(0,0)"/>
<path d="" fill="#000000" transform="translate(0,0)"/>
<path d="" fill="#FFFFFF" transform="translate(0,0)"/>
<path d="" fill="#000000" transform="translate(0,0)"/>
<path d="" fill="#000000" transform="translate(0,0)"/>
<path d="" fill="#FFFFFF" transform="translate(0,0)"/>
<path d="" fill="#000000" transform="translate(0,0)"/>
<path d="" fill="#000000" transform="translate(0,0)"/>
<path d="" fill="#FFFFFF" transform="translate(0,0)"/>
<path d="" fill="#000000" transform="translate(0,0)"/>
<path d="" fill="#000000" transform="translate(0,0)"/>
<path d="" fill="#000000" transform="translate(0,0)"/>
<path d="" fill="#000000" transform="translate(0,0)"/>
<path d="" fill="#FFFFFF" transform="translate(0,0)"/>
<path d="" fill="#FFFFFF" transform="translate(0,0)"/>
<path d="" fill="#000000" transform="translate(0,0)"/>
<path d="" fill="#FFFFFF" transform="translate(0,0)"/>
<path d="" fill="#FFFFFF" transform="translate(0,0)"/>
<path d="" fill="#FFFFFF" transform="translate(0,0)"/>
<path d="" fill="#000000" transform="translate(0,0)"/>
<path d="" fill="#000000" transform="translate(0,0)"/>
<path d="" fill="#000000" transform="translate(0,0)"/>
<path d="" fill="#FFFFFF" transform="translate(0,0)"/>
<path d="" fill="#FFFFFF" transform="translate(0,0)"/>
<path d="" fill="#000000" transform="translate(0,0)"/>
<path d="" fill="#FFFFFF" transform="translate(0,0)"/>
<path d="" fill="#000000" transform="translate(0,0)"/>
<path d="" fill="#FFFFFF" transform="translate(0,0)"/>
<path d="" fill="#FFFFFF" transform="translate(0,0)"/>
<path d="" fill="#000000" transform="translate(0,0)"/>
<path d="" fill="#FFFFFF" transform="translate(0,0)"/>
<path d="" fill="#FFFFFF" transform="translate(0,0)"/>
<path d="" fill="#FFFFFF" transform="translate(0,0)"/>
<path d="" fill="#FFFFFF" transform="translate(0,0)"/>
<path d="" fill="#FFFFFF" transform="translate(0,0)"/>
<path d="" fill="#FFFFFF" transform="translate(0,0)"/>
<path d="" fill="#FFFFFF" transform="translate(0,0)"/>
<path d="" fill="#FFFFFF" transform="translate(0,0)"/>
<path d="" fill="#FFFFFF" transform="translate(0,0)"/>
<path d="" fill="#FFFFFF" transform="translate(0,0)"/>
<path d="" fill="#FFFFFF" transform="translate(0,0)"/>
<path d="" fill="#FFFFFF" transform="translate(0,0)"/>
<path d="" fill="#FFFFFF" transform="translate(0,0)"/>
</svg>
